{
  "accessors": [
    {
      "bufferView": 0,
      "componentType": 5125,
      "count": 154230,
      "max": [
        25968
      ],
      "min": [
        0
      ],
      "type": "SCALAR"
    },
    {
      "bufferView": 1,
      "componentType": 5125,
      "count": 154230,
      "max": [
        51937
      ],
      "min": [
        25969
      ],
      "type": "SCALAR"
    },
    {
      "bufferView": 2,
      "componentType": 5125,
      "count": 3816,
      "max": [
        52693
      ],
      "min": [
        51938
      ],
      "type": "SCALAR"
    },
    {
      "bufferView": 3,
      "componentType": 5126,
      "count": 52694,
      "max": [
        21.28444480895996,
        153.79673767089844,
        -2.4331881999969482
      ],
      "min": [
        -21.595624923706055,
        82.6753158569336,
        -18.114866256713867
      ],
      "type": "VEC3"
    },
    {
      "bufferView": 4,
      "componentType": 5126,
      "count": 52694,
      "max": [
        0.9999902844429016,
        0.9930194616317749,
        0.9999993443489075
      ],
      "min": [
        -0.99998939037323,
        -0.9997105002403259,
        -0.9999993443489075
      ],
      "type": "VEC3"
    },
    {
      "bufferView": 5,
      "componentType": 5126,
      "count": 52694,
      "max": [
        0.49594607949256897,
        0.6984983682632446
      ],
      "min": [
        0.007812317460775375,
        0.011179983615875244
      ],
      "type": "VEC2"
    },
    {
      "bufferView": 6,
      "componentType": 5125,
      "count": 1773,
      "max": [
        332
      ],
      "min": [
        0
      ],
      "type": "SCALAR"
    },
    {
      "bufferView": 7,
      "componentType": 5125,
      "count": 1773,
      "max": [
        665
      ],
      "min": [
        333
      ],
      "type": "SCALAR"
    },
    {
      "bufferView": 8,
      "componentType": 5125,
      "count": 1224,
      "max": [
        924
      ],
      "min": [
        666
      ],
      "type": "SCALAR"
    },
    {
      "bufferView": 9,
      "componentType": 5126,
      "count": 925,
      "max": [
        1.4960416555404663,
        148.7344207763672,
        8.306550025939941
      ],
      "min": [
        -3.553285598754883,
        137.12872314453125,
        1.6000288724899292
      ],
      "type": "VEC3"
    },
    {
      "bufferView": 10,
      "componentType": 5126,
      "count": 925,
      "max": [
        0.9997928738594055,
        0.9972281455993652,
        0.9971877336502075
      ],
      "min": [
        -0.9918233156204224,
        -0.9806075692176819,
        -0.951866865158081
      ],
      "type": "VEC3"
    },
    {
      "bufferView": 11,
      "componentType": 5126,
      "count": 925,
      "max": [
        0.03503415733575821,
        0.2324967384338379
      ],
      "min": [
        0.007812576368451118,
        0.10580646991729736
      ],
      "type": "VEC2"
    },
    {
      "bufferView": 12,
      "componentType": 5125,
      "count": 143091,
      "max": [
        24130
      ],
      "min": [
        0
      ],
      "type": "SCALAR"
    },
    {
      "bufferView": 13,
      "componentType": 5125,
      "count": 143091,
      "max": [
        48261
      ],
      "min": [
        24131
      ],
      "type": "SCALAR"
    },
    {
      "bufferView": 14,
      "componentType": 5125,
      "count": 3816,
      "max": [
        49017
      ],
      "min": [
        48262
      ],
      "type": "SCALAR"
    },
    {
      "bufferView": 15,
      "componentType": 5126,
      "count": 49018,
      "max": [
        21.174945831298828,
        152.71572875976563,
        13.98753833770752
      ],
      "min": [
        -21.508481979370117,
        83.76976776123047,
        -6.225122451782227
      ],
      "type": "VEC3"
    },
    {
      "bufferView": 16,
      "componentType": 5126,
      "count": 49018,
      "max": [
        0.9999717473983765,
        0.9649088382720947,
        0.9992849826812744
      ],
      "min": [
        -0.9999720454216003,
        -0.9996365308761597,
        -0.9992851614952087
      ],
      "type": "VEC3"
    },
    {
      "bufferView": 17,
      "componentType": 5126,
      "count": 49018,
      "max": [
        0.9921875596046448,
        0.9328733682632446
      ],
      "min": [
        0.5040538311004639,
        0.2733251452445984
      ],
      "type": "VEC2"
    },
    {
      "bufferView": 18,
      "componentType": 5125,
      "count": 1773,
      "max": [
        332
      ],
      "min": [
        0
      ],
      "type": "SCALAR"
    },
    {
      "bufferView": 19,
      "componentType": 5125,
      "count": 1773,
      "max": [
        665
      ],
      "min": [
        333
      ],
      "type": "SCALAR"
    },
    {
      "bufferView": 20,
      "componentType": 5125,
      "count": 1224,
      "max": [
        924
      ],
      "min": [
        666
      ],
      "type": "SCALAR"
    },
    {
      "bufferView": 21,
      "componentType": 5126,
      "count": 925,
      "max": [
        4.068428993225098,
        148.80804443359375,
        8.308501243591309
      ],
      "min": [
        -1.7038004398345947,
        137.17762756347656,
        2.18021559715271
      ],
      "type": "VEC3"
    },
    {
      "bufferView": 22,
      "componentType": 5126,
      "count": 925,
      "max": [
        0.9936633706092834,
        0.9941853284835815,
        0.9990954995155334
      ],
      "min": [
        -0.9967280626296997,
        -0.995806872844696,
        -0.99759840965271
      ],
      "type": "VEC3"
    },
    {
      "bufferView": 23,
      "componentType": 5126,
      "count": 925,
      "max": [
        0.5353602766990662,
        0.49755412340164185
      ],
      "min": [
        0.5081386566162109,
        0.3708638548851013
      ],
      "type": "VEC2"
    },
    {
      "bufferView": 24,
      "componentType": 5125,
      "count": 24030,
      "max": [
        4114
      ],
      "min": [
        0
      ],
      "type": "SCALAR"
    },
    {
      "bufferView": 25,
      "componentType": 5125,
      "count": 24030,
      "max": [
        8229
      ],
      "min": [
        4115
      ],
      "type": "SCALAR"
    },
    {
      "bufferView": 26,
      "componentType": 5126,
      "count": 8230,
      "max": [
        -15.395026206970215,
        146.61676025390625,
        1.7539989948272705
      ],
      "min": [
        -28.388687133789063,
        123.71533203125,
        -13.557723045349121
      ],
      "type": "VEC3"
    },
    {
      "bufferView": 27,
      "componentType": 5126,
      "count": 8230,
      "max": [
        0.9999774098396301,
        0.9988262057304382,
        0.9996281266212463
      ],
      "min": [
        -0.9999734163284302,
        -0.9628381133079529,
        -0.9997655153274536
      ],
      "type": "VEC3"
    },
    {
      "bufferView": 28,
      "componentType": 5126,
      "count": 8230,
      "max": [
        0.8422650098800659,
        0.2519127130508423
      ],
      "min": [
        0.4547146260738373,
        0.06607484817504883
      ],
      "type": "VEC2"
    },
    {
      "bufferView": 29,
      "componentType": 5125,
      "count": 23868,
      "max": [
        4087
      ],
      "min": [
        0
      ],
      "type": "SCALAR"
    },
    {
      "bufferView": 30,
      "componentType": 5125,
      "count": 23868,
      "max": [
        8175
      ],
      "min": [
        4088
      ],
      "type": "SCALAR"
    },
    {
      "bufferView": 31,
      "componentType": 5126,
      "count": 8176,
      "max": [
        27.98084831237793,
        146.9849395751953,
        1.603109359741211
      ],
      "min": [
        15.093688011169434,
        123.683349609375,
        -13.8277006149292
      ],
      "type": "VEC3"
    },
    {
      "bufferView": 32,
      "componentType": 5126,
      "count": 8176,
      "max": [
        0.999971330165863,
        0.958172082901001,
        0.9999016523361206
      ],
      "min": [
        -0.9999496936798096,
        -0.8941709995269775,
        -0.9998961687088013
      ],
      "type": "VEC3"
    },
    {
      "bufferView": 33,
      "componentType": 5126,
      "count": 8176,
      "max": [
        0.49150922894477844,
        0.8988165259361267
      ],
      "min": [
        0.10395882278680801,
        0.712978720664978
      ],
      "type": "VEC2"
    },
    {
      "bufferView": 34,
      "componentType": 5125,
      "count": 564,
      "max": [
        189
      ],
      "min": [
        0
      ],
      "type": "SCALAR"
    },
    {
      "bufferView": 35,
      "componentType": 5125,
      "count": 564,
      "max": [
        379
      ],
      "min": [
        190
      ],
      "type": "SCALAR"
    },
    {
      "bufferView": 36,
      "componentType": 5125,
      "count": 6840,
      "max": [
        1737
      ],
      "min": [
        380
      ],
      "type": "SCALAR"
    },
    {
      "bufferView": 37,
      "componentType": 5126,
      "count": 1738,
      "max": [
        8.08212947845459,
        153.77911376953125,
        2.2765510082244873
      ],
      "min": [
        -8.547405242919922,
        148.3665313720703,
        -12.116168975830078
      ],
      "type": "VEC3"
    },
    {
      "bufferView": 38,
      "componentType": 5126,
      "count": 1738,
      "max": [
        0.9983763694763184,
        0.999259889125824,
        0.9848908185958862
      ],
      "min": [
        -0.9980164170265198,
        -0.9985001087188721,
        -0.9983983635902405
      ],
      "type": "VEC3"
    },
    {
      "bufferView": 39,
      "componentType": 5126,
      "count": 1738,
      "max": [
        0.7781162261962891,
        0.9533708095550537
      ],
      "min": [
        0.41573023796081543,
        0.9470290541648865
      ],
      "type": "VEC2"
    },
    {
      "bufferView": 40,
      "componentType": 5125,
      "count": 453,
      "max": [
        152
      ],
      "min": [
        0
      ],
      "type": "SCALAR"
    },
    {
      "bufferView": 41,
      "componentType": 5125,
      "count": 453,
      "max": [
        305
      ],
      "min": [
        153
      ],
      "type": "SCALAR"
    },
    {
      "bufferView": 42,
      "componentType": 5125,
      "count": 2520,
      "max": [
        809
      ],
      "min": [
        306
      ],
      "type": "SCALAR"
    },
    {
      "bufferView": 43,
      "componentType": 5126,
      "count": 810,
      "max": [
        -16.16705894470215,
        125.38402557373047,
        -0.5357536673545837
      ],
      "min": [
        -28.964385986328125,
        121.8051528930664,
        -10.745944023132324
      ],
      "type": "VEC3"
    },
    {
      "bufferView": 44,
      "componentType": 5126,
      "count": 810,
      "max": [
        0.9745033383369446,
        0.4759550094604492,
        0.9979989528656006
      ],
      "min": [
        -0.9981268048286438,
        -0.9831830859184265,
        -0.9979769587516785
      ],
      "type": "VEC3"
    },
    {
      "bufferView": 45,
      "componentType": 5126,
      "count": 810,
      "max": [
        0.9138364791870117,
        0.04346144199371338
      ],
      "min": [
        0.5935730338096619,
        0.03983426094055176
      ],
      "type": "VEC2"
    },
    {
      "bufferView": 46,
      "componentType": 5125,
      "count": 453,
      "max": [
        152
      ],
      "min": [
        0
      ],
      "type": "SCALAR"
    },
    {
      "bufferView": 47,
      "componentType": 5125,
      "count": 453,
      "max": [
        305
      ],
      "min": [
        153
      ],
      "type": "SCALAR"
    },
    {
      "bufferView": 48,
      "componentType": 5125,
      "count": 2520,
      "max": [
        809
      ],
      "min": [
        306
      ],
      "type": "SCALAR"
    },
    {
      "bufferView": 49,
      "componentType": 5126,
      "count": 810,
      "max": [
        28.53093910217285,
        125.6732406616211,
        -0.578647255897522
      ],
      "min": [
        15.812785148620605,
        121.9071273803711,
        -10.856429100036621
      ],
      "type": "VEC3"
    },
    {
      "bufferView": 50,
      "componentType": 5126,
      "count": 810,
      "max": [
        0.9997127056121826,
        0.5141249299049377,
        0.9995909929275513
      ],
      "min": [
        -0.9825333952903748,
        -0.9852083325386047,
        -0.9995779991149902
      ],
      "type": "VEC3"
    },
    {
      "bufferView": 51,
      "componentType": 5126,
      "count": 810,
      "max": [
        0.7439663410186768,
        0.9889336228370667
      ],
      "min": [
        0.42370277643203735,
        0.9853069186210632
      ],
      "type": "VEC2"
    },
    {
      "bufferView": 52,
      "componentType": 5125,
      "count": 510,
      "max": [
        171
      ],
      "min": [
        0
      ],
      "type": "SCALAR"
    },
    {
      "bufferView": 53,
      "componentType": 5125,
      "count": 510,
      "max": [
        343
      ],
      "min": [
        172
      ],
      "type": "SCALAR"
    },
    {
      "bufferView": 54,
      "componentType": 5125,
      "count": 3132,
      "max": [
        973
      ],
      "min": [
        344
      ],
      "type": "SCALAR"
    },
    {
      "bufferView": 55,
      "componentType": 5126,
      "count": 974,
      "max": [
        8.913643836975098,
        154.16122436523438,
        1.5502299070358276
      ],
      "min": [
        -9.281362533569336,
        147.06112670898438,
        -12.207667350769043
      ],
      "type": "VEC3"
    },
    {
      "bufferView": 56,
      "componentType": 5126,
      "count": 974,
      "max": [
        0.9975267648696899,
        0.8414024710655212,
        0.9896277189254761
      ],
      "min": [
        -0.9985001683235168,
        -0.9973604679107666,
        -0.9989127516746521
      ],
      "type": "VEC3"
    },
    {
      "bufferView": 57,
      "componentType": 5126,
      "count": 974,
      "max": [
        0.8021889925003052,
        0.9711503982543945
      ],
      "min": [
        0.4203658401966095,
        0.9675263166427612
      ],
      "type": "VEC2"
    },
    {
      "bufferView": 58,
      "componentType": 5125,
      "count": 2508,
      "max": [
        495
      ],
      "min": [
        0
      ],
      "type": "SCALAR"
    },
    {
      "bufferView": 59,
      "componentType": 5125,
      "count": 2508,
      "max": [
        991
      ],
      "min": [
        496
      ],
      "type": "SCALAR"
    },
    {
      "bufferView": 60,
      "componentType": 5126,
      "count": 992,
      "max": [
        -15.517821311950684,
        126.91851043701172,
        -0.44193288683891296
      ],
      "min": [
        -28.84647560119629,
        122.25543212890625,
        -11.099194526672363
      ],
      "type": "VEC3"
    },
    {
      "bufferView": 61,
      "componentType": 5126,
      "count": 992,
      "max": [
        0.9977239966392517,
        0.6764981150627136,
        0.9989652037620544
      ],
      "min": [
        -0.9977977275848389,
        -0.6765517592430115,
        -0.9989545345306396
      ],
      "type": "VEC3"
    },
    {
      "bufferView": 62,
      "componentType": 5126,
      "count": 992,
      "max": [
        0.34360194206237793,
        0.9274715185165405
      ],
      "min": [
        0.007812561467289925,
        0.9129722714424133
      ],
      "type": "VEC2"
    },
    {
      "bufferView": 63,
      "componentType": 5125,
      "count": 2472,
      "max": [
        489
      ],
      "min": [
        0
      ],
      "type": "SCALAR"
    },
    {
      "bufferView": 64,
      "componentType": 5125,
      "count": 2472,
      "max": [
        979
      ],
      "min": [
        490
      ],
      "type": "SCALAR"
    },
    {
      "bufferView": 65,
      "componentType": 5126,
      "count": 980,
      "max": [
        28.4290714263916,
        127.20912170410156,
        -0.5478258728981018
      ],
      "min": [
        15.1519775390625,
        122.3581314086914,
        -11.226425170898438
      ],
      "type": "VEC3"
    },
    {
      "bufferView": 66,
      "componentType": 5126,
      "count": 980,
      "max": [
        0.9972727298736572,
        0.8133400082588196,
        0.9999580383300781
      ],
      "min": [
        -0.9952835440635681,
        -0.7910541296005249,
        -0.999958336353302
      ],
      "type": "VEC3"
    },
    {
      "bufferView": 67,
      "componentType": 5126,
      "count": 980,
      "max": [
        0.7503222823143005,
        0.025676071643829346
      ],
      "min": [
        0.4145331084728241,
        0.011179983615875244
      ],
      "type": "VEC2"
    },
    {
      "bufferView": 68,
      "componentType": 5125,
      "count": 9987,
      "max": [
        1765
      ],
      "min": [
        0
      ],
      "type": "SCALAR"
    },
    {
      "bufferView": 69,
      "componentType": 5125,
      "count": 9987,
      "max": [
        3531
      ],
      "min": [
        1766
      ],
      "type": "SCALAR"
    },
    {
      "bufferView": 70,
      "componentType": 5125,
      "count": 864,
      "max": [
        3727
      ],
      "min": [
        3532
      ],
      "type": "SCALAR"
    },
    {
      "bufferView": 71,
      "componentType": 5126,
      "count": 3728,
      "max": [
        8.491679191589355,
        156.3861541748047,
        3.2168807983398438
      ],
      "min": [
        -8.873173713684082,
        147.12315368652344,
        -12.393397331237793
      ],
      "type": "VEC3"
    },
    {
      "bufferView": 72,
      "componentType": 5126,
      "count": 3728,
      "max": [
        0.9922484755516052,
        0.9962456226348877,
        0.9998573660850525
      ],
      "min": [
        -0.9948897361755371,
        -0.9925321936607361,
        -0.9999203681945801
      ],
      "type": "VEC3"
    },
    {
      "bufferView": 73,
      "componentType": 5126,
      "count": 3728,
      "max": [
        0.40643706917762756,
        0.9921876788139343
      ],
      "min": [
        0.007812469732016325,
        0.9416272640228271
      ],
      "type": "VEC2"
    },
    {
      "bufferView": 74,
      "componentType": 5125,
      "count": 3738,
      "max": [
        804
      ],
      "min": [
        0
      ],
      "type": "SCALAR"
    },
    {
      "bufferView": 75,
      "componentType": 5125,
      "count": 5184,
      "max": [
        1830
      ],
      "min": [
        805
      ],
      "type": "SCALAR"
    },
    {
      "bufferView": 76,
      "componentType": 5126,
      "count": 1831,
      "max": [
        1.0,
        0.3228607177734375,
        1.0000014305114746
      ],
      "min": [
        -1.0000076293945313,
        -2.288818359375e-05,
        -0.9999985694885254
      ],
      "type": "VEC3"
    },
    {
      "bufferView": 77,
      "componentType": 5126,
      "count": 1831,
      "max": [
        0.9999760985374451,
        1.0,
        0.9996377825737
      ],
      "min": [
        -1.0,
        -1.0,
        -0.9996377825737
      ],
      "type": "VEC3"
    },
    {
      "bufferView": 78,
      "componentType": 5126,
      "count": 1831,
      "max": [
        0.9030203223228455,
        0.8066390752792358
      ],
      "min": [
        0.05088621377944946,
        0.24667853116989136
      ],
      "type": "VEC2"
    },
    {
      "bufferView": 79,
      "componentType": 5125,
      "count": 3738,
      "max": [
        804
      ],
      "min": [
        0
      ],
      "type": "SCALAR"
    },
    {
      "bufferView": 80,
      "componentType": 5125,
      "count": 5184,
      "max": [
        1830
      ],
      "min": [
        805
      ],
      "type": "SCALAR"
    },
    {
      "bufferView": 81,
      "componentType": 5126,
      "count": 1831,
      "max": [
        1.0,
        0.32285308837890625,
        1.0000152587890625
      ],
      "min": [
        -0.9999847412109375,
        -1.52587890625e-05,
        -0.9999923706054688
      ],
      "type": "VEC3"
    },
    {
      "bufferView": 82,
      "componentType": 5126,
      "count": 1831,
      "max": [
        0.9999760985374451,
        1.0,
        0.9996377825737
      ],
      "min": [
        -1.0,
        -1.0,
        -0.9996377825737
      ],
      "type": "VEC3"
    },
    {
      "bufferView": 83,
      "componentType": 5126,
      "count": 1831,
      "max": [
        0.9030203223228455,
        0.8066390752792358
      ],
      "min": [
        0.05088621377944946,
        0.24667853116989136
      ],
      "type": "VEC2"
    },
    {
      "bufferView": 84,
      "componentType": 5125,
      "count": 248976,
      "max": [
        48335
      ],
      "min": [
        0
      ],
      "type": "SCALAR"
    },
    {
      "bufferView": 85,
      "componentType": 5126,
      "count": 48336,
      "max": [
        18.71332550048828,
        85.7942886352539,
        -2.6147592067718506
      ],
      "min": [
        -18.78834342956543,
        84.3329086303711,
        -17.575265884399414
      ],
      "type": "VEC3"
    },
    {
      "bufferView": 86,
      "componentType": 5126,
      "count": 48336,
      "max": [
        0.9999299049377441,
        0.9999887943267822,
        0.9999427795410156
      ],
      "min": [
        -0.9998626708984375,
        -0.9941986799240112,
        -0.9999955296516418
      ],
      "type": "VEC3"
    },
    {
      "bufferView": 87,
      "componentType": 5126,
      "count": 48336,
      "max": [
        0.4770309031009674,
        0.7366350889205933
      ],
      "min": [
        0.4021982252597809,
        0.7217138409614563
      ],
      "type": "VEC2"
    },
    {
      "bufferView": 88,
      "componentType": 5125,
      "count": 487008,
      "max": [
        122435
      ],
      "min": [
        0
      ],
      "type": "SCALAR"
    },
    {
      "bufferView": 89,
      "componentType": 5126,
      "count": 122436,
      "max": [
        18.46095085144043,
        85.7455062866211,
        -2.6212000846862793
      ],
      "min": [
        -18.533111572265625,
        84.24610900878906,
        -17.318758010864258
      ],
      "type": "VEC3"
    },
    {
      "bufferView": 90,
      "componentType": 5126,
      "count": 122436,
      "max": [
        1.0,
        0.9999580383300781,
        0.999998927116394
      ],
      "min": [
        -0.9999626278877258,
        -0.9999430179595947,
        -0.9999799728393555
      ],
      "type": "VEC3"
    },
    {
      "bufferView": 91,
      "componentType": 5126,
      "count": 122436,
      "max": [
        0.8919158577919006,
        0.15233582258224487
      ],
      "min": [
        0.8030588030815125,
        0.06667685508728027
      ],
      "type": "VEC2"
    },
    {
      "bufferView": 92,
      "componentType": 5125,
      "count": 32760,
      "max": [
        6359
      ],
      "min": [
        0
      ],
      "type": "SCALAR"
    },
    {
      "bufferView": 93,
      "componentType": 5125,
      "count": 32760,
      "max": [
        12719
      ],
      "min": [
        6360
      ],
      "type": "SCALAR"
    },
    {
      "bufferView": 94,
      "componentType": 5126,
      "count": 12720,
      "max": [
        -1.5146106481552124,
        148.68597412109375,
        8.30539608001709
      ],
      "min": [
        -3.4793591499328613,
        137.19247436523438,
        1.599892497062683
      ],
      "type": "VEC3"
    },
    {
      "bufferView": 95,
      "componentType": 5126,
      "count": 12720,
      "max": [
        0.9999896287918091,
        0.9996487498283386,
        0.9995717406272888
      ],
      "min": [
        -0.9999241828918457,
        -0.9991834163665771,
        -0.9999915361404419
      ],
      "type": "VEC3"
    },
    {
      "bufferView": 96,
      "componentType": 5126,
      "count": 12720,
      "max": [
        0.5656116604804993,
        0.06381285190582275
      ],
      "min": [
        0.49077895283699036,
        0.04889160394668579
      ],
      "type": "VEC2"
    },
    {
      "bufferView": 97,
      "componentType": 5125,
      "count": 7098,
      "max": [
        1377
      ],
      "min": [
        0
      ],
      "type": "SCALAR"
    },
    {
      "bufferView": 98,
      "componentType": 5125,
      "count": 7098,
      "max": [
        2755
      ],
      "min": [
        1378
      ],
      "type": "SCALAR"
    },
    {
      "bufferView": 99,
      "componentType": 5126,
      "count": 2756,
      "max": [
        -2.926870107650757,
        148.668701171875,
        4.6537394523620605
      ],
      "min": [
        -3.4783599376678467,
        147.81639099121094,
        1.833788514137268
      ],
      "type": "VEC3"
    },
    {
      "bufferView": 100,
      "componentType": 5126,
      "count": 2756,
      "max": [
        0.9998446702957153,
        0.9997687339782715,
        0.9931461811065674
      ],
      "min": [
        -0.9997366070747375,
        -0.9986898303031921,
        -0.9998878836631775
      ],
      "type": "VEC3"
    },
    {
      "bufferView": 101,
      "componentType": 5126,
      "count": 2756,
      "max": [
        0.5656116604804993,
        0.06381285190582275
      ],
      "min": [
        0.49077895283699036,
        0.04889160394668579
      ],
      "type": "VEC2"
    },
    {
      "bufferView": 102,
      "componentType": 5125,
      "count": 248976,
      "max": [
        48335
      ],
      "min": [
        0
      ],
      "type": "SCALAR"
    },
    {
      "bufferView": 103,
      "componentType": 5126,
      "count": 48336,
      "max": [
        18.703920364379883,
        87.11383056640625,
        13.906538963317871
      ],
      "min": [
        -18.785980224609375,
        85.41045379638672,
        -2.891824245452881
      ],
      "type": "VEC3"
    },
    {
      "bufferView": 104,
      "componentType": 5126,
      "count": 48336,
      "max": [
        0.9994825720787048,
        0.9992959499359131,
        0.9982849359512329
      ],
      "min": [
        -0.999407947063446,
        -0.9994739890098572,
        -0.9975752830505371
      ],
      "type": "VEC3"
    },
    {
      "bufferView": 105,
      "componentType": 5126,
      "count": 48336,
      "max": [
        0.4770309031009674,
        0.7366350889205933
      ],
      "min": [
        0.4021982252597809,
        0.7217138409614563
      ],
      "type": "VEC2"
    },
    {
      "bufferView": 106,
      "componentType": 5125,
      "count": 487008,
      "max": [
        122435
      ],
      "min": [
        0
      ],
      "type": "SCALAR"
    },
    {
      "bufferView": 107,
      "componentType": 5126,
      "count": 122436,
      "max": [
        18.450927734375,
        87.03739929199219,
        13.65820598602295
      ],
      "min": [
        -18.533353805541992,
        85.3043212890625,
        -2.896841287612915
      ],
      "type": "VEC3"
    },
    {
      "bufferView": 108,
      "componentType": 5126,
      "count": 122436,
      "max": [
        1.0,
        0.9997586011886597,
        0.9994024038314819
      ],
      "min": [
        -0.999971330165863,
        -0.9998968243598938,
        -0.9999873638153076
      ],
      "type": "VEC3"
    },
    {
      "bufferView": 109,
      "componentType": 5126,
      "count": 122436,
      "max": [
        0.8919158577919006,
        0.15233582258224487
      ],
      "min": [
        0.8030588030815125,
        0.06667685508728027
      ],
      "type": "VEC2"
    },
    {
      "bufferView": 110,
      "componentType": 5125,
      "count": 32760,
      "max": [
        6359
      ],
      "min": [
        0
      ],
      "type": "SCALAR"
    },
    {
      "bufferView": 111,
      "componentType": 5125,
      "count": 32760,
      "max": [
        12719
      ],
      "min": [
        6360
      ],
      "type": "SCALAR"
    },
    {
      "bufferView": 112,
      "componentType": 5126,
      "count": 12720,
      "max": [
        3.915843963623047,
        147.7722625732422,
        8.341248512268066
      ],
      "min": [
        -1.5499590635299683,
        137.24693298339844,
        4.7060322761535645
      ],
      "type": "VEC3"
    },
    {
      "bufferView": 113,
      "componentType": 5126,
      "count": 12720,
      "max": [
        0.9998065829277039,
        0.9992513060569763,
        0.9999861717224121
      ],
      "min": [
        -0.9999217391014099,
        -0.9999029040336609,
        -0.9999473094940186
      ],
      "type": "VEC3"
    },
    {
      "bufferView": 114,
      "componentType": 5126,
      "count": 12720,
      "max": [
        0.5656116604804993,
        0.06381285190582275
      ],
      "min": [
        0.49077895283699036,
        0.04889160394668579
      ],
      "type": "VEC2"
    },
    {
      "bufferView": 115,
      "componentType": 5125,
      "count": 7098,
      "max": [
        1377
      ],
      "min": [
        0
      ],
      "type": "SCALAR"
    },
    {
      "bufferView": 116,
      "componentType": 5125,
      "count": 7098,
      "max": [
        2755
      ],
      "min": [
        1378
      ],
      "type": "SCALAR"
    },
    {
      "bufferView": 117,
      "componentType": 5126,
      "count": 2756,
      "max": [
        3.9111106395721436,
        148.81008911132813,
        4.858850479125977
      ],
      "min": [
        3.4942986965179443,
        147.57530212402344,
        2.160687208175659
      ],
      "type": "VEC3"
    },
    {
      "bufferView": 118,
      "componentType": 5126,
      "count": 2756,
      "max": [
        0.9922806024551392,
        0.9984835982322693,
        0.9993042349815369
      ],
      "min": [
        -0.9999322891235352,
        -0.9998971819877625,
        -0.99869304895401
      ],
      "type": "VEC3"
    },
    {
      "bufferView": 119,
      "componentType": 5126,
      "count": 2756,
      "max": [
        0.5656116604804993,
        0.06381285190582275
      ],
      "min": [
        0.49077895283699036,
        0.04889160394668579
      ],
      "type": "VEC2"
    },
    {
      "bufferView": 120,
      "componentType": 5125,
      "count": 6552,
      "max": [
        1271
      ],
      "min": [
        0
      ],
      "type": "SCALAR"
    },
    {
      "bufferView": 121,
      "componentType": 5126,
      "count": 1272,
      "max": [
        1.3554121255874634,
        137.37734985351563,
        8.3342924118042
      ],
      "min": [
        -1.503543734550476,
        137.2950897216797,
        8.203330993652344
      ],
      "type": "VEC3"
    },
    {
      "bufferView": 122,
      "componentType": 5126,
      "count": 1272,
      "max": [
        0.9975407719612122,
        0.9996030330657959,
        0.9898278713226318
      ],
      "min": [
        -0.9934037923812866,
        -0.9934532046318054,
        -0.9995879530906677
      ],
      "type": "VEC3"
    },
    {
      "bufferView": 123,
      "componentType": 5126,
      "count": 1272,
      "max": [
        0.9016401767730713,
        0.9710099101066589
      ],
      "min": [
        0.8268074989318848,
        0.956088662147522
      ],
      "type": "VEC2"
    },
    {
      "bufferView": 124,
      "componentType": 5125,
      "count": 2184,
      "max": [
        423
      ],
      "min": [
        0
      ],
      "type": "SCALAR"
    },
    {
      "bufferView": 125,
      "componentType": 5126,
      "count": 424,
      "max": [
        1.416871190071106,
        138.29844665527344,
        8.23429012298584
      ],
      "min": [
        1.3494421243667603,
        137.3157958984375,
        7.82173490524292
      ],
      "type": "VEC3"
    },
    {
      "bufferView": 126,
      "componentType": 5126,
      "count": 424,
      "max": [
        0.9765605330467224,
        0.9938277006149292,
        0.9944518208503723
      ],
      "min": [
        -0.9982752799987793,
        -0.9715777039527893,
        -0.991209864616394
      ],
      "type": "VEC3"
    },
    {
      "bufferView": 127,
      "componentType": 5126,
      "count": 424,
      "max": [
        0.9016401767730713,
        0.9710099101066589
      ],
      "min": [
        0.8268074989318848,
        0.956088662147522
      ],
      "type": "VEC2"
    },
    {
      "bufferView": 128,
      "componentType": 5125,
      "count": 6552,
      "max": [
        1271
      ],
      "min": [
        0
      ],
      "type": "SCALAR"
    },
    {
      "bufferView": 129,
      "componentType": 5126,
      "count": 1272,
      "max": [
        1.3943570852279663,
        138.3794708251953,
        7.994294166564941
      ],
      "min": [
        -1.4580140113830566,
        138.2745819091797,
        7.825685024261475
      ],
      "type": "VEC3"
    },
    {
      "bufferView": 130,
      "componentType": 5126,
      "count": 1272,
      "max": [
        0.9972564578056335,
        0.9997727274894714,
        0.9967607259750366
      ],
      "min": [
        -0.9872010946273804,
        -0.9995214343070984,
        -0.9986376762390137
      ],
      "type": "VEC3"
    },
    {
      "bufferView": 131,
      "componentType": 5126,
      "count": 1272,
      "max": [
        0.9016401767730713,
        0.9710099101066589
      ],
      "min": [
        0.8268074989318848,
        0.956088662147522
      ],
      "type": "VEC2"
    }
  ],
  "asset": {
    "generator": "CLO Standalone 2024.2.120",
    "version": "2.0"
  },
  "bufferViews": [
    {
      "buffer": 0,
      "byteLength": 616920
    },
    {
      "buffer": 0,
      "byteLength": 616920,
      "byteOffset": 616920
    },
    {
      "buffer": 0,
      "byteLength": 15264,
      "byteOffset": 1233840
    },
    {
      "buffer": 0,
      "byteLength": 632328,
      "byteOffset": 1249104
    },
    {
      "buffer": 0,
      "byteLength": 632328,
      "byteOffset": 1881432
    },
    {
      "buffer": 0,
      "byteLength": 421552,
      "byteOffset": 2513760
    },
    {
      "buffer": 0,
      "byteLength": 7092,
      "byteOffset": 2935312
    },
    {
      "buffer": 0,
      "byteLength": 7092,
      "byteOffset": 2942404
    },
    {
      "buffer": 0,
      "byteLength": 4896,
      "byteOffset": 2949496
    },
    {
      "buffer": 0,
      "byteLength": 11100,
      "byteOffset": 2954392
    },
    {
      "buffer": 0,
      "byteLength": 11100,
      "byteOffset": 2965492
    },
    {
      "buffer": 0,
      "byteLength": 7400,
      "byteOffset": 2976592
    },
    {
      "buffer": 0,
      "byteLength": 572364,
      "byteOffset": 2983992
    },
    {
      "buffer": 0,
      "byteLength": 572364,
      "byteOffset": 3556356
    },
    {
      "buffer": 0,
      "byteLength": 15264,
      "byteOffset": 4128720
    },
    {
      "buffer": 0,
      "byteLength": 588216,
      "byteOffset": 4143984
    },
    {
      "buffer": 0,
      "byteLength": 588216,
      "byteOffset": 4732200
    },
    {
      "buffer": 0,
      "byteLength": 392144,
      "byteOffset": 5320416
    },
    {
      "buffer": 0,
      "byteLength": 7092,
      "byteOffset": 5712560
    },
    {
      "buffer": 0,
      "byteLength": 7092,
      "byteOffset": 5719652
    },
    {
      "buffer": 0,
      "byteLength": 4896,
      "byteOffset": 5726744
    },
    {
      "buffer": 0,
      "byteLength": 11100,
      "byteOffset": 5731640
    },
    {
      "buffer": 0,
      "byteLength": 11100,
      "byteOffset": 5742740
    },
    {
      "buffer": 0,
      "byteLength": 7400,
      "byteOffset": 5753840
    },
    {
      "buffer": 0,
      "byteLength": 96120,
      "byteOffset": 5761240
    },
    {
      "buffer": 0,
      "byteLength": 96120,
      "byteOffset": 5857360
    },
    {
      "buffer": 0,
      "byteLength": 98760,
      "byteOffset": 5953480
    },
    {
      "buffer": 0,
      "byteLength": 98760,
      "byteOffset": 6052240
    },
    {
      "buffer": 0,
      "byteLength": 65840,
      "byteOffset": 6151000
    },
    {
      "buffer": 0,
      "byteLength": 95472,
      "byteOffset": 6216840
    },
    {
      "buffer": 0,
      "byteLength": 95472,
      "byteOffset": 6312312
    },
    {
      "buffer": 0,
      "byteLength": 98112,
      "byteOffset": 6407784
    },
    {
      "buffer": 0,
      "byteLength": 98112,
      "byteOffset": 6505896
    },
    {
      "buffer": 0,
      "byteLength": 65408,
      "byteOffset": 6604008
    },
    {
      "buffer": 0,
      "byteLength": 2256,
      "byteOffset": 6669416
    },
    {
      "buffer": 0,
      "byteLength": 2256,
      "byteOffset": 6671672
    },
    {
      "buffer": 0,
      "byteLength": 27360,
      "byteOffset": 6673928
    },
    {
      "buffer": 0,
      "byteLength": 20856,
      "byteOffset": 6701288
    },
    {
      "buffer": 0,
      "byteLength": 20856,
      "byteOffset": 6722144
    },
    {
      "buffer": 0,
      "byteLength": 13904,
      "byteOffset": 6743000
    },
    {
      "buffer": 0,
      "byteLength": 1812,
      "byteOffset": 6756904
    },
    {
      "buffer": 0,
      "byteLength": 1812,
      "byteOffset": 6758716
    },
    {
      "buffer": 0,
      "byteLength": 10080,
      "byteOffset": 6760528
    },
    {
      "buffer": 0,
      "byteLength": 9720,
      "byteOffset": 6770608
    },
    {
      "buffer": 0,
      "byteLength": 9720,
      "byteOffset": 6780328
    },
    {
      "buffer": 0,
      "byteLength": 6480,
      "byteOffset": 6790048
    },
    {
      "buffer": 0,
      "byteLength": 1812,
      "byteOffset": 6796528
    },
    {
      "buffer": 0,
      "byteLength": 1812,
      "byteOffset": 6798340
    },
    {
      "buffer": 0,
      "byteLength": 10080,
      "byteOffset": 6800152
    },
    {
      "buffer": 0,
      "byteLength": 9720,
      "byteOffset": 6810232
    },
    {
      "buffer": 0,
      "byteLength": 9720,
      "byteOffset": 6819952
    },
    {
      "buffer": 0,
      "byteLength": 6480,
      "byteOffset": 6829672
    },
    {
      "buffer": 0,
      "byteLength": 2040,
      "byteOffset": 6836152
    },
    {
      "buffer": 0,
      "byteLength": 2040,
      "byteOffset": 6838192
    },
    {
      "buffer": 0,
      "byteLength": 12528,
      "byteOffset": 6840232
    },
    {
      "buffer": 0,
      "byteLength": 11688,
      "byteOffset": 6852760
    },
    {
      "buffer": 0,
      "byteLength": 11688,
      "byteOffset": 6864448
    },
    {
      "buffer": 0,
      "byteLength": 7792,
      "byteOffset": 6876136
    },
    {
      "buffer": 0,
      "byteLength": 10032,
      "byteOffset": 6883928
    },
    {
      "buffer": 0,
      "byteLength": 10032,
      "byteOffset": 6893960
    },
    {
      "buffer": 0,
      "byteLength": 11904,
      "byteOffset": 6903992
    },
    {
      "buffer": 0,
      "byteLength": 11904,
      "byteOffset": 6915896
    },
    {
      "buffer": 0,
      "byteLength": 7936,
      "byteOffset": 6927800
    },
    {
      "buffer": 0,
      "byteLength": 9888,
      "byteOffset": 6935736
    },
    {
      "buffer": 0,
      "byteLength": 9888,
      "byteOffset": 6945624
    },
    {
      "buffer": 0,
      "byteLength": 11760,
      "byteOffset": 6955512
    },
    {
      "buffer": 0,
      "byteLength": 11760,
      "byteOffset": 6967272
    },
    {
      "buffer": 0,
      "byteLength": 7840,
      "byteOffset": 6979032
    },
    {
      "buffer": 0,
      "byteLength": 39948,
      "byteOffset": 6986872
    },
    {
      "buffer": 0,
      "byteLength": 39948,
      "byteOffset": 7026820
    },
    {
      "buffer": 0,
      "byteLength": 3456,
      "byteOffset": 7066768
    },
    {
      "buffer": 0,
      "byteLength": 44736,
      "byteOffset": 7070224
    },
    {
      "buffer": 0,
      "byteLength": 44736,
      "byteOffset": 7114960
    },
    {
      "buffer": 0,
      "byteLength": 29824,
      "byteOffset": 7159696
    },
    {
      "buffer": 0,
      "byteLength": 14952,
      "byteOffset": 7189520
    },
    {
      "buffer": 0,
      "byteLength": 20736,
      "byteOffset": 7204472
    },
    {
      "buffer": 0,
      "byteLength": 21972,
      "byteOffset": 7225208
    },
    {
      "buffer": 0,
      "byteLength": 21972,
      "byteOffset": 7247180
    },
    {
      "buffer": 0,
      "byteLength": 14648,
      "byteOffset": 7269152
    },
    {
      "buffer": 0,
      "byteLength": 14952,
      "byteOffset": 7283800
    },
    {
      "buffer": 0,
      "byteLength": 20736,
      "byteOffset": 7298752
    },
    {
      "buffer": 0,
      "byteLength": 21972,
      "byteOffset": 7319488
    },
    {
      "buffer": 0,
      "byteLength": 21972,
      "byteOffset": 7341460
    },
    {
      "buffer": 0,
      "byteLength": 14648,
      "byteOffset": 7363432
    },
    {
      "buffer": 0,
      "byteLength": 995904,
      "byteOffset": 7378080
    },
    {
      "buffer": 0,
      "byteLength": 580032,
      "byteOffset": 8373984
    },
    {
      "buffer": 0,
      "byteLength": 580032,
      "byteOffset": 8954016
    },
    {
      "buffer": 0,
      "byteLength": 386688,
      "byteOffset": 9534048
    },
    {
      "buffer": 0,
      "byteLength": 1948032,
      "byteOffset": 9920736
    },
    {
      "buffer": 0,
      "byteLength": 1469232,
      "byteOffset": 11868768
    },
    {
      "buffer": 0,
      "byteLength": 1469232,
      "byteOffset": 13338000
    },
    {
      "buffer": 0,
      "byteLength": 979488,
      "byteOffset": 14807232
    },
    {
      "buffer": 0,
      "byteLength": 131040,
      "byteOffset": 15786720
    },
    {
      "buffer": 0,
      "byteLength": 131040,
      "byteOffset": 15917760
    },
    {
      "buffer": 0,
      "byteLength": 152640,
      "byteOffset": 16048800
    },
    {
      "buffer": 0,
      "byteLength": 152640,
      "byteOffset": 16201440
    },
    {
      "buffer": 0,
      "byteLength": 101760,
      "byteOffset": 16354080
    },
    {
      "buffer": 0,
      "byteLength": 28392,
      "byteOffset": 16455840
    },
    {
      "buffer": 0,
      "byteLength": 28392,
      "byteOffset": 16484232
    },
    {
      "buffer": 0,
      "byteLength": 33072,
      "byteOffset": 16512624
    },
    {
      "buffer": 0,
      "byteLength": 33072,
      "byteOffset": 16545696
    },
    {
      "buffer": 0,
      "byteLength": 22048,
      "byteOffset": 16578768
    },
    {
      "buffer": 0,
      "byteLength": 995904,
      "byteOffset": 16600816
    },
    {
      "buffer": 0,
      "byteLength": 580032,
      "byteOffset": 17596720
    },
    {
      "buffer": 0,
      "byteLength": 580032,
      "byteOffset": 18176752
    },
    {
      "buffer": 0,
      "byteLength": 386688,
      "byteOffset": 18756784
    },
    {
      "buffer": 0,
      "byteLength": 1948032,
      "byteOffset": 19143472
    },
    {
      "buffer": 0,
      "byteLength": 1469232,
      "byteOffset": 21091504
    },
    {
      "buffer": 0,
      "byteLength": 1469232,
      "byteOffset": 22560736
    },
    {
      "buffer": 0,
      "byteLength": 979488,
      "byteOffset": 24029968
    },
    {
      "buffer": 0,
      "byteLength": 131040,
      "byteOffset": 25009456
    },
    {
      "buffer": 0,
      "byteLength": 131040,
      "byteOffset": 25140496
    },
    {
      "buffer": 0,
      "byteLength": 152640,
      "byteOffset": 25271536
    },
    {
      "buffer": 0,
      "byteLength": 152640,
      "byteOffset": 25424176
    },
    {
      "buffer": 0,
      "byteLength": 101760,
      "byteOffset": 25576816
    },
    {
      "buffer": 0,
      "byteLength": 28392,
      "byteOffset": 25678576
    },
    {
      "buffer": 0,
      "byteLength": 28392,
      "byteOffset": 25706968
    },
    {
      "buffer": 0,
      "byteLength": 33072,
      "byteOffset": 25735360
    },
    {
      "buffer": 0,
      "byteLength": 33072,
      "byteOffset": 25768432
    },
    {
      "buffer": 0,
      "byteLength": 22048,
      "byteOffset": 25801504
    },
    {
      "buffer": 0,
      "byteLength": 26208,
      "byteOffset": 25823552
    },
    {
      "buffer": 0,
      "byteLength": 15264,
      "byteOffset": 25849760
    },
    {
      "buffer": 0,
      "byteLength": 15264,
      "byteOffset": 25865024
    },
    {
      "buffer": 0,
      "byteLength": 10176,
      "byteOffset": 25880288
    },
    {
      "buffer": 0,
      "byteLength": 8736,
      "byteOffset": 25890464
    },
    {
      "buffer": 0,
      "byteLength": 5088,
      "byteOffset": 25899200
    },
    {
      "buffer": 0,
      "byteLength": 5088,
      "byteOffset": 25904288
    },
    {
      "buffer": 0,
      "byteLength": 3392,
      "byteOffset": 25909376
    },
    {
      "buffer": 0,
      "byteLength": 26208,
      "byteOffset": 25912768
    },
    {
      "buffer": 0,
      "byteLength": 15264,
      "byteOffset": 25938976
    },
    {
      "buffer": 0,
      "byteLength": 15264,
      "byteOffset": 25954240
    },
    {
      "buffer": 0,
      "byteLength": 10176,
      "byteOffset": 25969504
    }
  ],
  "buffers": [
    {
      "byteLength": 25979680,
      "uri": "CORE TIPPED POLO PINK_gltf_thick.bin"
    }
  ],
  "extensionsUsed": [
    "KHR_materials_specular"
  ],
  "images": [
    {
      "uri": "CORE TIPPED POLO PINK_gltf_thick_diffuse_1001.png"
    },
    {
      "uri": "CORE TIPPED POLO PINK_gltf_thick_normal_1001.png"
    },
    {
      "uri": "CORE TIPPED POLO PINK_gltf_thick_metallicroughness_1001.png"
    }
  ],
  "materials": [
    {
      "extensions": {
        "KHR_materials_specular": {
          "specularFactor": 0.15000000596046448
        }
      },
      "name": "Knit_Pique_Jersey_2476",
      "normalTexture": {
        "index": 1
      },
      "pbrMetallicRoughness": {
        "baseColorTexture": {
          "index": 0
        },
        "metallicRoughnessTexture": {
          "index": 2
        }
      }
    },
    {
      "extensions": {
        "KHR_materials_specular": {
          "specularFactor": 0.15000000596046448
        }
      },
      "name": "BTN_2502",
      "normalTexture": {
        "index": 1
      },
      "pbrMetallicRoughness": {
        "baseColorTexture": {
          "index": 0
        },
        "metallicRoughnessTexture": {
          "index": 2
        }
      }
    },
    {
      "extensions": {
        "KHR_materials_specular": {
          "specularFactor": 0.15000000596046448
        }
      },
      "name": "Rib Copy 2_2512",
      "normalTexture": {
        "index": 1
      },
      "pbrMetallicRoughness": {
        "baseColorTexture": {
          "index": 0
        },
        "metallicRoughnessTexture": {
          "index": 2
        }
      }
    },
    {
      "extensions": {
        "KHR_materials_specular": {
          "specularFactor": 0.15000000596046448
        }
      },
      "name": "Rib_2489",
      "normalTexture": {
        "index": 1
      },
      "pbrMetallicRoughness": {
        "baseColorTexture": {
          "index": 0
        },
        "metallicRoughnessTexture": {
          "index": 2
        }
      }
    },
    {
      "extensions": {
        "KHR_materials_specular": {
          "specularFactor": 0.75
        }
      },
      "name": "Button_2540",
      "normalTexture": {
        "index": 1
      },
      "pbrMetallicRoughness": {
        "baseColorTexture": {
          "index": 0
        },
        "metallicRoughnessTexture": {
          "index": 2
        }
      }
    },
    {
      "extensions": {
        "KHR_materials_specular": {
          "specularFactor": 0.15000000596046448
        }
      },
      "name": "Button_2542",
      "normalTexture": {
        "index": 1
      },
      "pbrMetallicRoughness": {
        "baseColorTexture": {
          "index": 0
        },
        "metallicRoughnessTexture": {
          "index": 2
        }
      }
    },
    {
      "extensions": {
        "KHR_materials_specular": {
          "specularFactor": 0.4000000059604645
        }
      },
      "name": "Bottom Hem_2774",
      "normalTexture": {
        "index": 1
      },
      "pbrMetallicRoughness": {
        "baseColorTexture": {
          "index": 0
        },
        "metallicRoughnessTexture": {
          "index": 2
        }
      }
    },
    {
      "extensions": {
        "KHR_materials_specular": {
          "specularFactor": 0.4000000059604645
        }
      },
      "name": "Bottom Hem_2801",
      "normalTexture": {
        "index": 1
      },
      "pbrMetallicRoughness": {
        "baseColorTexture": {
          "index": 0
        },
        "metallicRoughnessTexture": {
          "index": 2
        }
      }
    },
    {
      "extensions": {
        "KHR_materials_specular": {
          "specularFactor": 0.4000000059604645
        }
      },
      "name": "Placket Stitch_2913",
      "normalTexture": {
        "index": 1
      },
      "pbrMetallicRoughness": {
        "baseColorTexture": {
          "index": 0
        },
        "metallicRoughnessTexture": {
          "index": 2
        }
      }
    },
    {
      "extensions": {
        "KHR_materials_specular": {
          "specularFactor": 0.4000000059604645
        }
      },
      "name": "Placket Stitch Box_3037",
      "normalTexture": {
        "index": 1
      },
      "pbrMetallicRoughness": {
        "baseColorTexture": {
          "index": 0
        },
        "metallicRoughnessTexture": {
          "index": 2
        }
      }
    }
  ],
  "meshes": [
    {
      "name": "Cloth_mesh",
      "primitives": [
        {
          "attributes": {
            "NORMAL": 4,
            "POSITION": 3,
            "TEXCOORD_0": 5
          },
          "indices": 0,
          "material": 0
        },
        {
          "attributes": {
            "NORMAL": 4,
            "POSITION": 3,
            "TEXCOORD_0": 5
          },
          "indices": 1,
          "material": 0
        },
        {
          "attributes": {
            "NORMAL": 4,
            "POSITION": 3,
            "TEXCOORD_0": 5
          },
          "indices": 2,
          "material": 0
        },
        {
          "attributes": {
            "NORMAL": 10,
            "POSITION": 9,
            "TEXCOORD_0": 11
          },
          "indices": 6,
          "material": 0
        },
        {
          "attributes": {
            "NORMAL": 10,
            "POSITION": 9,
            "TEXCOORD_0": 11
          },
          "indices": 7,
          "material": 0
        },
        {
          "attributes": {
            "NORMAL": 10,
            "POSITION": 9,
            "TEXCOORD_0": 11
          },
          "indices": 8,
          "material": 0
        },
        {
          "attributes": {
            "NORMAL": 16,
            "POSITION": 15,
            "TEXCOORD_0": 17
          },
          "indices": 12,
          "material": 0
        },
        {
          "attributes": {
            "NORMAL": 16,
            "POSITION": 15,
            "TEXCOORD_0": 17
          },
          "indices": 13,
          "material": 0
        },
        {
          "attributes": {
            "NORMAL": 16,
            "POSITION": 15,
            "TEXCOORD_0": 17
          },
          "indices": 14,
          "material": 0
        },
        {
          "attributes": {
            "NORMAL": 22,
            "POSITION": 21,
            "TEXCOORD_0": 23
          },
          "indices": 18,
          "material": 0
        },
        {
          "attributes": {
            "NORMAL": 22,
            "POSITION": 21,
            "TEXCOORD_0": 23
          },
          "indices": 19,
          "material": 0
        },
        {
          "attributes": {
            "NORMAL": 22,
            "POSITION": 21,
            "TEXCOORD_0": 23
          },
          "indices": 20,
          "material": 0
        },
        {
          "attributes": {
            "NORMAL": 27,
            "POSITION": 26,
            "TEXCOORD_0": 28
          },
          "indices": 24,
          "material": 0
        },
        {
          "attributes": {
            "NORMAL": 27,
            "POSITION": 26,
            "TEXCOORD_0": 28
          },
          "indices": 25,
          "material": 0
        },
        {
          "attributes": {
            "NORMAL": 32,
            "POSITION": 31,
            "TEXCOORD_0": 33
          },
          "indices": 29,
          "material": 0
        },
        {
          "attributes": {
            "NORMAL": 32,
            "POSITION": 31,
            "TEXCOORD_0": 33
          },
          "indices": 30,
          "material": 0
        },
        {
          "attributes": {
            "NORMAL": 38,
            "POSITION": 37,
            "TEXCOORD_0": 39
          },
          "indices": 34,
          "material": 1
        },
        {
          "attributes": {
            "NORMAL": 38,
            "POSITION": 37,
            "TEXCOORD_0": 39
          },
          "indices": 35,
          "material": 1
        },
        {
          "attributes": {
            "NORMAL": 38,
            "POSITION": 37,
            "TEXCOORD_0": 39
          },
          "indices": 36,
          "material": 1
        },
        {
          "attributes": {
            "NORMAL": 44,
            "POSITION": 43,
            "TEXCOORD_0": 45
          },
          "indices": 40,
          "material": 2
        },
        {
          "attributes": {
            "NORMAL": 44,
            "POSITION": 43,
            "TEXCOORD_0": 45
          },
          "indices": 41,
          "material": 2
        },
        {
          "attributes": {
            "NORMAL": 44,
            "POSITION": 43,
            "TEXCOORD_0": 45
          },
          "indices": 42,
          "material": 2
        },
        {
          "attributes": {
            "NORMAL": 50,
            "POSITION": 49,
            "TEXCOORD_0": 51
          },
          "indices": 46,
          "material": 2
        },
        {
          "attributes": {
            "NORMAL": 50,
            "POSITION": 49,
            "TEXCOORD_0": 51
          },
          "indices": 47,
          "material": 2
        },
        {
          "attributes": {
            "NORMAL": 50,
            "POSITION": 49,
            "TEXCOORD_0": 51
          },
          "indices": 48,
          "material": 2
        },
        {
          "attributes": {
            "NORMAL": 56,
            "POSITION": 55,
            "TEXCOORD_0": 57
          },
          "indices": 52,
          "material": 2
        },
        {
          "attributes": {
            "NORMAL": 56,
            "POSITION": 55,
            "TEXCOORD_0": 57
          },
          "indices": 53,
          "material": 2
        },
        {
          "attributes": {
            "NORMAL": 56,
            "POSITION": 55,
            "TEXCOORD_0": 57
          },
          "indices": 54,
          "material": 2
        },
        {
          "attributes": {
            "NORMAL": 61,
            "POSITION": 60,
            "TEXCOORD_0": 62
          },
          "indices": 58,
          "material": 3
        },
        {
          "attributes": {
            "NORMAL": 61,
            "POSITION": 60,
            "TEXCOORD_0": 62
          },
          "indices": 59,
          "material": 3
        },
        {
          "attributes": {
            "NORMAL": 66,
            "POSITION": 65,
            "TEXCOORD_0": 67
          },
          "indices": 63,
          "material": 3
        },
        {
          "attributes": {
            "NORMAL": 66,
            "POSITION": 65,
            "TEXCOORD_0": 67
          },
          "indices": 64,
          "material": 3
        },
        {
          "attributes": {
            "NORMAL": 72,
            "POSITION": 71,
            "TEXCOORD_0": 73
          },
          "indices": 68,
          "material": 3
        },
        {
          "attributes": {
            "NORMAL": 72,
            "POSITION": 71,
            "TEXCOORD_0": 73
          },
          "indices": 69,
          "material": 3
        },
        {
          "attributes": {
            "NORMAL": 72,
            "POSITION": 71,
            "TEXCOORD_0": 73
          },
          "indices": 70,
          "material": 3
        }
      ]
    },
    {
      "name": "ButtonHead_153397",
      "primitives": [
        {
          "attributes": {
            "NORMAL": 77,
            "POSITION": 76,
            "TEXCOORD_0": 78
          },
          "indices": 74,
          "material": 4
        },
        {
          "attributes": {
            "NORMAL": 77,
            "POSITION": 76,
            "TEXCOORD_0": 78
          },
          "indices": 75,
          "material": 5
        }
      ]
    },
    {
      "name": "ButtonHead_154323",
      "primitives": [
        {
          "attributes": {
            "NORMAL": 82,
            "POSITION": 81,
            "TEXCOORD_0": 83
          },
          "indices": 79,
          "material": 4
        },
        {
          "attributes": {
            "NORMAL": 82,
            "POSITION": 81,
            "TEXCOORD_0": 83
          },
          "indices": 80,
          "material": 5
        }
      ]
    },
    {
      "name": "Stitch_176070",
      "primitives": [
        {
          "attributes": {
            "NORMAL": 86,
            "POSITION": 85,
            "TEXCOORD_0": 87
          },
          "indices": 84,
          "material": 6
        }
      ]
    },
    {
      "name": "Stitch_176070",
      "primitives": [
        {
          "attributes": {
            "NORMAL": 90,
            "POSITION": 89,
            "TEXCOORD_0": 91
          },
          "indices": 88,
          "material": 7
        }
      ]
    },
    {
      "name": "Stitch_359216",
      "primitives": [
        {
          "attributes": {
            "NORMAL": 95,
            "POSITION": 94,
            "TEXCOORD_0": 96
          },
          "indices": 92,
          "material": 8
        },
        {
          "attributes": {
            "NORMAL": 95,
            "POSITION": 94,
            "TEXCOORD_0": 96
          },
          "indices": 93,
          "material": 8
        }
      ]
    },
    {
      "name": "Stitch_360650",
      "primitives": [
        {
          "attributes": {
            "NORMAL": 100,
            "POSITION": 99,
            "TEXCOORD_0": 101
          },
          "indices": 97,
          "material": 8
        },
        {
          "attributes": {
            "NORMAL": 100,
            "POSITION": 99,
            "TEXCOORD_0": 101
          },
          "indices": 98,
          "material": 8
        }
      ]
    },
    {
      "name": "Stitch_170415",
      "primitives": [
        {
          "attributes": {
            "NORMAL": 104,
            "POSITION": 103,
            "TEXCOORD_0": 105
          },
          "indices": 102,
          "material": 6
        }
      ]
    },
    {
      "name": "Stitch_170415",
      "primitives": [
        {
          "attributes": {
            "NORMAL": 108,
            "POSITION": 107,
            "TEXCOORD_0": 109
          },
          "indices": 106,
          "material": 7
        }
      ]
    },
    {
      "name": "Stitch_359504",
      "primitives": [
        {
          "attributes": {
            "NORMAL": 113,
            "POSITION": 112,
            "TEXCOORD_0": 114
          },
          "indices": 110,
          "material": 8
        },
        {
          "attributes": {
            "NORMAL": 113,
            "POSITION": 112,
            "TEXCOORD_0": 114
          },
          "indices": 111,
          "material": 8
        }
      ]
    },
    {
      "name": "Stitch_360047",
      "primitives": [
        {
          "attributes": {
            "NORMAL": 118,
            "POSITION": 117,
            "TEXCOORD_0": 119
          },
          "indices": 115,
          "material": 8
        },
        {
          "attributes": {
            "NORMAL": 118,
            "POSITION": 117,
            "TEXCOORD_0": 119
          },
          "indices": 116,
          "material": 8
        }
      ]
    },
    {
      "name": "Stitch_377684",
      "primitives": [
        {
          "attributes": {
            "NORMAL": 122,
            "POSITION": 121,
            "TEXCOORD_0": 123
          },
          "indices": 120,
          "material": 9
        }
      ]
    },
    {
      "name": "Stitch_378285",
      "primitives": [
        {
          "attributes": {
            "NORMAL": 126,
            "POSITION": 125,
            "TEXCOORD_0": 127
          },
          "indices": 124,
          "material": 9
        }
      ]
    },
    {
      "name": "Stitch_377128",
      "primitives": [
        {
          "attributes": {
            "NORMAL": 130,
            "POSITION": 129,
            "TEXCOORD_0": 131
          },
          "indices": 128,
          "material": 9
        }
      ]
    }
  ],
  "nodes": [
    {
      "children": [
        1
      ],
      "name": "CORE TIPPED POLO PINK_gltf_thick_Scene_Node"
    },
    {
      "children": [
        2,
        3,
        4,
        5,
        6,
        7,
        8,
        9,
        10,
        11,
        12,
        13,
        14
      ],
      "mesh": 0,
      "name": "Cloth"
    },
    {
      "mesh": 1,
      "rotation": [
        0.9542230367660522,
        -0.27684247493743896,
        0.10794540494680405,
        -0.034124210476875305
      ],
      "scale": [
        0.7500000596046448,
        0.9999998211860657,
        0.7500000596046448
      ],
      "translation": [
        -1.9211387634277344,
        147.29368591308594,
        2.9145116806030273
      ]
    },
    {
      "mesh": 2,
      "rotation": [
        0.21124009788036346,
        -0.652522623538971,
        -0.47768640518188477,
        0.5490060448646545
      ],
      "scale": [
        0.7500000596046448,
        1.0,
        0.7500000596046448
      ],
      "translation": [
        -0.15793660283088684,
        142.80422973632813,
        5.773488521575928
      ]
    },
    {
      "mesh": 3,
      "name": "BindedTrim_15825"
    },
    {
      "mesh": 4,
      "name": "BindedTrim_16058"
    },
    {
      "mesh": 5,
      "name": "BindedTrim_16128"
    },
    {
      "mesh": 6,
      "name": "BindedTrim_16147"
    },
    {
      "mesh": 7,
      "name": "BindedTrim_16614"
    },
    {
      "mesh": 8,
      "name": "BindedTrim_16847"
    },
    {
      "mesh": 9,
      "name": "BindedTrim_16923"
    },
    {
      "mesh": 10,
      "name": "BindedTrim_16942"
    },
    {
      "mesh": 11,
      "name": "BindedTrim_16960"
    },
    {
      "mesh": 12,
      "name": "BindedTrim_16969"
    },
    {
      "mesh": 13,
      "name": "BindedTrim_16986"
    }
  ],
  "samplers": [
    {
      "magFilter": 9729,
      "minFilter": 9987
    }
  ],
  "scene": 0,
  "scenes": [
    {
      "nodes": [
        0
      ]
    }
  ],
  "textures": [
    {
      "name": "Texture",
      "sampler": 0,
      "source": 0
    },
    {
      "name": "Texture",
      "sampler": 0,
      "source": 1
    },
    {
      "name": "Texture",
      "sampler": 0,
      "source": 2
    }
  ]
}